<mxfile host="app.diagrams.net" modified="2024-02-06T15:37:38.466Z" agent="Mozilla/5.0 (Windows NT 10.0; Win64; x64) AppleWebKit/537.36 (KHTML, like Gecko) Chrome/121.0.0.0 Safari/537.36 Edg/121.0.0.0" etag="hOCzqL3Zpy0MKyPKBrOk" version="23.1.1" type="device">
  <diagram name="Página-1" id="SUFbr2HTSDFKZNyE0G0p">
    <mxGraphModel dx="1501" dy="826" grid="1" gridSize="10" guides="1" tooltips="1" connect="1" arrows="1" fold="1" page="1" pageScale="1" pageWidth="1169" pageHeight="1654" math="0" shadow="0">
      <root>
        <mxCell id="0" />
        <mxCell id="1" parent="0" />
        <mxCell id="FjIIZRWK-bw7_QmBxQMW-31" style="edgeStyle=orthogonalEdgeStyle;rounded=0;orthogonalLoop=1;jettySize=auto;html=1;" edge="1" parent="1" source="FjIIZRWK-bw7_QmBxQMW-1" target="FjIIZRWK-bw7_QmBxQMW-30">
          <mxGeometry relative="1" as="geometry" />
        </mxCell>
        <mxCell id="FjIIZRWK-bw7_QmBxQMW-1" value="Inicio" style="ellipse;whiteSpace=wrap;html=1;" vertex="1" parent="1">
          <mxGeometry x="60" y="20" width="120" height="80" as="geometry" />
        </mxCell>
        <mxCell id="FjIIZRWK-bw7_QmBxQMW-65" style="edgeStyle=orthogonalEdgeStyle;rounded=0;orthogonalLoop=1;jettySize=auto;html=1;" edge="1" parent="1" source="FjIIZRWK-bw7_QmBxQMW-6" target="FjIIZRWK-bw7_QmBxQMW-64">
          <mxGeometry relative="1" as="geometry" />
        </mxCell>
        <mxCell id="FjIIZRWK-bw7_QmBxQMW-6" value="Seleccionar el producto" style="shape=parallelogram;perimeter=parallelogramPerimeter;whiteSpace=wrap;html=1;fixedSize=1;" vertex="1" parent="1">
          <mxGeometry x="20" y="630" width="200" height="70" as="geometry" />
        </mxCell>
        <mxCell id="FjIIZRWK-bw7_QmBxQMW-19" style="edgeStyle=orthogonalEdgeStyle;rounded=0;orthogonalLoop=1;jettySize=auto;html=1;exitX=0.5;exitY=1;exitDx=0;exitDy=0;entryX=0.5;entryY=0;entryDx=0;entryDy=0;" edge="1" parent="1" source="FjIIZRWK-bw7_QmBxQMW-8" target="FjIIZRWK-bw7_QmBxQMW-18">
          <mxGeometry relative="1" as="geometry" />
        </mxCell>
        <mxCell id="FjIIZRWK-bw7_QmBxQMW-20" value="Si" style="edgeLabel;html=1;align=center;verticalAlign=middle;resizable=0;points=[];" vertex="1" connectable="0" parent="FjIIZRWK-bw7_QmBxQMW-19">
          <mxGeometry x="-0.1333" relative="1" as="geometry">
            <mxPoint as="offset" />
          </mxGeometry>
        </mxCell>
        <mxCell id="FjIIZRWK-bw7_QmBxQMW-94" style="edgeStyle=orthogonalEdgeStyle;rounded=0;orthogonalLoop=1;jettySize=auto;html=1;" edge="1" parent="1" source="FjIIZRWK-bw7_QmBxQMW-8" target="FjIIZRWK-bw7_QmBxQMW-11">
          <mxGeometry relative="1" as="geometry" />
        </mxCell>
        <mxCell id="FjIIZRWK-bw7_QmBxQMW-95" value="No" style="edgeLabel;html=1;align=center;verticalAlign=middle;resizable=0;points=[];" vertex="1" connectable="0" parent="FjIIZRWK-bw7_QmBxQMW-94">
          <mxGeometry x="-0.0921" y="-3" relative="1" as="geometry">
            <mxPoint as="offset" />
          </mxGeometry>
        </mxCell>
        <mxCell id="FjIIZRWK-bw7_QmBxQMW-8" value="El monto es mayor o igual al producto" style="rhombus;whiteSpace=wrap;html=1;" vertex="1" parent="1">
          <mxGeometry x="500" y="1080" width="196" height="170" as="geometry" />
        </mxCell>
        <mxCell id="FjIIZRWK-bw7_QmBxQMW-96" style="edgeStyle=orthogonalEdgeStyle;rounded=0;orthogonalLoop=1;jettySize=auto;html=1;entryX=1;entryY=0.5;entryDx=0;entryDy=0;" edge="1" parent="1" source="FjIIZRWK-bw7_QmBxQMW-11" target="FjIIZRWK-bw7_QmBxQMW-64">
          <mxGeometry relative="1" as="geometry">
            <Array as="points">
              <mxPoint x="860" y="780" />
            </Array>
          </mxGeometry>
        </mxCell>
        <mxCell id="FjIIZRWK-bw7_QmBxQMW-11" value="Monto insuficiente" style="rounded=0;whiteSpace=wrap;html=1;" vertex="1" parent="1">
          <mxGeometry x="800" y="1135" width="120" height="60" as="geometry" />
        </mxCell>
        <mxCell id="FjIIZRWK-bw7_QmBxQMW-22" style="edgeStyle=orthogonalEdgeStyle;rounded=0;orthogonalLoop=1;jettySize=auto;html=1;exitX=0.5;exitY=1;exitDx=0;exitDy=0;entryX=0.5;entryY=0;entryDx=0;entryDy=0;" edge="1" parent="1" source="FjIIZRWK-bw7_QmBxQMW-18" target="FjIIZRWK-bw7_QmBxQMW-21">
          <mxGeometry relative="1" as="geometry" />
        </mxCell>
        <mxCell id="FjIIZRWK-bw7_QmBxQMW-18" value="Dispensar el producto" style="rounded=0;whiteSpace=wrap;html=1;" vertex="1" parent="1">
          <mxGeometry x="528" y="1330" width="140" height="70" as="geometry" />
        </mxCell>
        <mxCell id="FjIIZRWK-bw7_QmBxQMW-24" style="edgeStyle=orthogonalEdgeStyle;rounded=0;orthogonalLoop=1;jettySize=auto;html=1;entryX=0.5;entryY=0;entryDx=0;entryDy=0;" edge="1" parent="1" source="FjIIZRWK-bw7_QmBxQMW-21" target="FjIIZRWK-bw7_QmBxQMW-44">
          <mxGeometry relative="1" as="geometry">
            <mxPoint x="120" y="1650" as="targetPoint" />
          </mxGeometry>
        </mxCell>
        <mxCell id="FjIIZRWK-bw7_QmBxQMW-25" value="Si" style="edgeLabel;html=1;align=center;verticalAlign=middle;resizable=0;points=[];" vertex="1" connectable="0" parent="FjIIZRWK-bw7_QmBxQMW-24">
          <mxGeometry x="-0.0182" y="-1" relative="1" as="geometry">
            <mxPoint as="offset" />
          </mxGeometry>
        </mxCell>
        <mxCell id="FjIIZRWK-bw7_QmBxQMW-97" style="edgeStyle=orthogonalEdgeStyle;rounded=0;orthogonalLoop=1;jettySize=auto;html=1;" edge="1" parent="1" source="FjIIZRWK-bw7_QmBxQMW-21">
          <mxGeometry relative="1" as="geometry">
            <mxPoint x="960" y="1545" as="targetPoint" />
          </mxGeometry>
        </mxCell>
        <mxCell id="FjIIZRWK-bw7_QmBxQMW-98" value="No" style="edgeLabel;html=1;align=center;verticalAlign=middle;resizable=0;points=[];" vertex="1" connectable="0" parent="FjIIZRWK-bw7_QmBxQMW-97">
          <mxGeometry x="-0.1166" y="-2" relative="1" as="geometry">
            <mxPoint as="offset" />
          </mxGeometry>
        </mxCell>
        <mxCell id="FjIIZRWK-bw7_QmBxQMW-21" value="El monto fue mayor al precio del producto" style="rhombus;whiteSpace=wrap;html=1;" vertex="1" parent="1">
          <mxGeometry x="493" y="1450" width="210" height="190" as="geometry" />
        </mxCell>
        <mxCell id="FjIIZRWK-bw7_QmBxQMW-34" style="edgeStyle=orthogonalEdgeStyle;rounded=0;orthogonalLoop=1;jettySize=auto;html=1;" edge="1" parent="1" source="FjIIZRWK-bw7_QmBxQMW-28" target="FjIIZRWK-bw7_QmBxQMW-33">
          <mxGeometry relative="1" as="geometry" />
        </mxCell>
        <mxCell id="FjIIZRWK-bw7_QmBxQMW-28" value="Leer la cantidad de moneda" style="rounded=0;whiteSpace=wrap;html=1;" vertex="1" parent="1">
          <mxGeometry x="60" y="230" width="120" height="60" as="geometry" />
        </mxCell>
        <mxCell id="FjIIZRWK-bw7_QmBxQMW-32" style="edgeStyle=orthogonalEdgeStyle;rounded=0;orthogonalLoop=1;jettySize=auto;html=1;" edge="1" parent="1" source="FjIIZRWK-bw7_QmBxQMW-30" target="FjIIZRWK-bw7_QmBxQMW-28">
          <mxGeometry relative="1" as="geometry" />
        </mxCell>
        <mxCell id="FjIIZRWK-bw7_QmBxQMW-30" value="Bienvenido, ingresa el monto" style="strokeWidth=1;html=1;shape=mxgraph.flowchart.display;whiteSpace=wrap;" vertex="1" parent="1">
          <mxGeometry x="47.5" y="120" width="145" height="80" as="geometry" />
        </mxCell>
        <mxCell id="FjIIZRWK-bw7_QmBxQMW-36" style="edgeStyle=orthogonalEdgeStyle;rounded=0;orthogonalLoop=1;jettySize=auto;html=1;" edge="1" parent="1" source="FjIIZRWK-bw7_QmBxQMW-33" target="FjIIZRWK-bw7_QmBxQMW-35">
          <mxGeometry relative="1" as="geometry" />
        </mxCell>
        <mxCell id="FjIIZRWK-bw7_QmBxQMW-37" value="Si" style="edgeLabel;html=1;align=center;verticalAlign=middle;resizable=0;points=[];" vertex="1" connectable="0" parent="FjIIZRWK-bw7_QmBxQMW-36">
          <mxGeometry x="-0.0857" y="1" relative="1" as="geometry">
            <mxPoint as="offset" />
          </mxGeometry>
        </mxCell>
        <mxCell id="FjIIZRWK-bw7_QmBxQMW-41" style="edgeStyle=orthogonalEdgeStyle;rounded=0;orthogonalLoop=1;jettySize=auto;html=1;" edge="1" parent="1" source="FjIIZRWK-bw7_QmBxQMW-33">
          <mxGeometry relative="1" as="geometry">
            <mxPoint x="950" y="380" as="targetPoint" />
          </mxGeometry>
        </mxCell>
        <mxCell id="FjIIZRWK-bw7_QmBxQMW-43" value="No" style="edgeLabel;html=1;align=center;verticalAlign=middle;resizable=0;points=[];" vertex="1" connectable="0" parent="FjIIZRWK-bw7_QmBxQMW-41">
          <mxGeometry x="-0.0831" y="-1" relative="1" as="geometry">
            <mxPoint as="offset" />
          </mxGeometry>
        </mxCell>
        <mxCell id="FjIIZRWK-bw7_QmBxQMW-33" value="¿Se ingresó moneda?" style="strokeWidth=1;html=1;shape=mxgraph.flowchart.decision;whiteSpace=wrap;" vertex="1" parent="1">
          <mxGeometry x="70" y="330" width="100" height="100" as="geometry" />
        </mxCell>
        <mxCell id="FjIIZRWK-bw7_QmBxQMW-38" style="edgeStyle=orthogonalEdgeStyle;rounded=0;orthogonalLoop=1;jettySize=auto;html=1;" edge="1" parent="1" source="FjIIZRWK-bw7_QmBxQMW-35" target="FjIIZRWK-bw7_QmBxQMW-6">
          <mxGeometry relative="1" as="geometry" />
        </mxCell>
        <mxCell id="FjIIZRWK-bw7_QmBxQMW-35" value="Mostrar monto ingresado" style="strokeWidth=1;html=1;shape=mxgraph.flowchart.display;whiteSpace=wrap;" vertex="1" parent="1">
          <mxGeometry x="47.5" y="500" width="145" height="80" as="geometry" />
        </mxCell>
        <mxCell id="FjIIZRWK-bw7_QmBxQMW-46" style="edgeStyle=orthogonalEdgeStyle;rounded=0;orthogonalLoop=1;jettySize=auto;html=1;entryX=0.5;entryY=0;entryDx=0;entryDy=0;" edge="1" parent="1" source="FjIIZRWK-bw7_QmBxQMW-44" target="FjIIZRWK-bw7_QmBxQMW-100">
          <mxGeometry relative="1" as="geometry">
            <mxPoint x="598" y="1930" as="targetPoint" />
          </mxGeometry>
        </mxCell>
        <mxCell id="FjIIZRWK-bw7_QmBxQMW-44" value="Calcular el IVA del monto que se devolverá" style="rounded=0;whiteSpace=wrap;html=1;" vertex="1" parent="1">
          <mxGeometry x="538" y="1770" width="120" height="60" as="geometry" />
        </mxCell>
        <mxCell id="FjIIZRWK-bw7_QmBxQMW-53" style="edgeStyle=orthogonalEdgeStyle;rounded=0;orthogonalLoop=1;jettySize=auto;html=1;exitX=1;exitY=0.5;exitDx=0;exitDy=0;" edge="1" parent="1" source="FjIIZRWK-bw7_QmBxQMW-100">
          <mxGeometry relative="1" as="geometry">
            <mxPoint x="960" y="1960" as="targetPoint" />
            <mxPoint x="658.0000000000005" y="1960" as="sourcePoint" />
          </mxGeometry>
        </mxCell>
        <mxCell id="FjIIZRWK-bw7_QmBxQMW-48" value="" style="endArrow=classic;html=1;rounded=0;" edge="1" parent="1">
          <mxGeometry width="50" height="50" relative="1" as="geometry">
            <mxPoint x="960" y="1960" as="sourcePoint" />
            <mxPoint x="950" y="160" as="targetPoint" />
          </mxGeometry>
        </mxCell>
        <mxCell id="FjIIZRWK-bw7_QmBxQMW-49" value="" style="endArrow=classic;html=1;rounded=0;entryX=1;entryY=0.5;entryDx=0;entryDy=0;entryPerimeter=0;" edge="1" parent="1" target="FjIIZRWK-bw7_QmBxQMW-30">
          <mxGeometry width="50" height="50" relative="1" as="geometry">
            <mxPoint x="950" y="160" as="sourcePoint" />
            <mxPoint x="170" y="130" as="targetPoint" />
          </mxGeometry>
        </mxCell>
        <mxCell id="FjIIZRWK-bw7_QmBxQMW-67" style="edgeStyle=orthogonalEdgeStyle;rounded=0;orthogonalLoop=1;jettySize=auto;html=1;entryX=0.5;entryY=0;entryDx=0;entryDy=0;" edge="1" parent="1" source="FjIIZRWK-bw7_QmBxQMW-64" target="FjIIZRWK-bw7_QmBxQMW-66">
          <mxGeometry relative="1" as="geometry" />
        </mxCell>
        <mxCell id="FjIIZRWK-bw7_QmBxQMW-64" value="Lectura de producto" style="rounded=0;whiteSpace=wrap;html=1;" vertex="1" parent="1">
          <mxGeometry x="60" y="750" width="120" height="60" as="geometry" />
        </mxCell>
        <mxCell id="FjIIZRWK-bw7_QmBxQMW-83" style="edgeStyle=orthogonalEdgeStyle;rounded=0;orthogonalLoop=1;jettySize=auto;html=1;entryX=0;entryY=0.5;entryDx=0;entryDy=0;" edge="1" parent="1" source="FjIIZRWK-bw7_QmBxQMW-66" target="FjIIZRWK-bw7_QmBxQMW-68">
          <mxGeometry relative="1" as="geometry" />
        </mxCell>
        <mxCell id="FjIIZRWK-bw7_QmBxQMW-84" value="Bebida" style="edgeLabel;html=1;align=center;verticalAlign=middle;resizable=0;points=[];" vertex="1" connectable="0" parent="FjIIZRWK-bw7_QmBxQMW-83">
          <mxGeometry x="-0.1187" y="-2" relative="1" as="geometry">
            <mxPoint as="offset" />
          </mxGeometry>
        </mxCell>
        <mxCell id="FjIIZRWK-bw7_QmBxQMW-85" style="edgeStyle=orthogonalEdgeStyle;rounded=0;orthogonalLoop=1;jettySize=auto;html=1;entryX=0;entryY=0.5;entryDx=0;entryDy=0;" edge="1" parent="1" source="FjIIZRWK-bw7_QmBxQMW-66" target="FjIIZRWK-bw7_QmBxQMW-87">
          <mxGeometry relative="1" as="geometry">
            <mxPoint x="270" y="1000" as="targetPoint" />
            <Array as="points">
              <mxPoint x="120" y="1000" />
            </Array>
          </mxGeometry>
        </mxCell>
        <mxCell id="FjIIZRWK-bw7_QmBxQMW-86" value="Chuchería" style="edgeLabel;html=1;align=center;verticalAlign=middle;resizable=0;points=[];" vertex="1" connectable="0" parent="FjIIZRWK-bw7_QmBxQMW-85">
          <mxGeometry x="-0.145" relative="1" as="geometry">
            <mxPoint as="offset" />
          </mxGeometry>
        </mxCell>
        <mxCell id="FjIIZRWK-bw7_QmBxQMW-66" value="¿Es bebida o chuchería?&amp;nbsp;" style="rhombus;whiteSpace=wrap;html=1;" vertex="1" parent="1">
          <mxGeometry x="60" y="840" width="120" height="110" as="geometry" />
        </mxCell>
        <mxCell id="FjIIZRWK-bw7_QmBxQMW-68" value="Seleccionar bebida" style="rounded=0;whiteSpace=wrap;html=1;" vertex="1" parent="1">
          <mxGeometry x="300" y="865" width="120" height="60" as="geometry" />
        </mxCell>
        <mxCell id="FjIIZRWK-bw7_QmBxQMW-87" value="Seleccionar chuchería" style="rounded=0;whiteSpace=wrap;html=1;" vertex="1" parent="1">
          <mxGeometry x="300" y="970" width="120" height="60" as="geometry" />
        </mxCell>
        <mxCell id="FjIIZRWK-bw7_QmBxQMW-89" value="" style="endArrow=none;html=1;rounded=0;exitX=1;exitY=0.5;exitDx=0;exitDy=0;" edge="1" parent="1">
          <mxGeometry width="50" height="50" relative="1" as="geometry">
            <mxPoint x="420" y="1005" as="sourcePoint" />
            <mxPoint x="600" y="940" as="targetPoint" />
          </mxGeometry>
        </mxCell>
        <mxCell id="FjIIZRWK-bw7_QmBxQMW-90" value="" style="endArrow=none;html=1;rounded=0;exitX=1;exitY=0.5;exitDx=0;exitDy=0;" edge="1" parent="1" source="FjIIZRWK-bw7_QmBxQMW-68">
          <mxGeometry width="50" height="50" relative="1" as="geometry">
            <mxPoint x="580" y="970" as="sourcePoint" />
            <mxPoint x="600" y="940" as="targetPoint" />
          </mxGeometry>
        </mxCell>
        <mxCell id="FjIIZRWK-bw7_QmBxQMW-93" value="" style="endArrow=classic;html=1;rounded=0;entryX=0.5;entryY=0;entryDx=0;entryDy=0;" edge="1" parent="1" target="FjIIZRWK-bw7_QmBxQMW-8">
          <mxGeometry width="50" height="50" relative="1" as="geometry">
            <mxPoint x="600" y="940" as="sourcePoint" />
            <mxPoint x="630" y="1050" as="targetPoint" />
          </mxGeometry>
        </mxCell>
        <mxCell id="FjIIZRWK-bw7_QmBxQMW-100" value="Dar vuelto" style="ellipse;whiteSpace=wrap;html=1;" vertex="1" parent="1">
          <mxGeometry x="538" y="1920" width="120" height="80" as="geometry" />
        </mxCell>
      </root>
    </mxGraphModel>
  </diagram>
</mxfile>
